<svg id="canvas" height="auto" xmlns="http://www.w3.org/2000/svg" version="1.1" xmlns:xlink="http://www.w3.org/1999/xlink" viewBox="0 0 900 512" width="auto" style="width: auto; height: auto;"><rect width="900" height="512" fill="#d8e8e6"/><g transform="matrix(0.5182783896488312,0,0,0.5182783896488312,-143.55303988464829,135.75458327801363)"><path d="M291 448.5L369.5 2L2 448.5H291Z" fill="#ffffff" transform="matrix(1,0,0,1,-300,279.8112814373236)"/><path d="M290.5 448L370 2.5L708.5 448H290.5Z" fill="#a3f5ef" transform="matrix(1,0,0,1,-300,279.8112814373236)"/></g><g transform="matrix(0.45287499609466275,0,0,0.45287499609466275,1.0942500078106745,170.2171539478464)"><path d="M291 448.5L369.5 2L2 448.5H291Z" fill="#ffffff" transform="matrix(1,0,0,1,0,309.11200174959106)"/><path d="M290.5 448L370 2.5L708.5 448H290.5Z" fill="#a3f5ef" transform="matrix(1,0,0,1,0,309.11200174959106)"/></g><g transform="matrix(0.6090139656631999,0,0,0.6090139656631999,118.07778236971365,94.29087359346673)"><path d="M291 448.5L369.5 2L2 448.5H291Z" fill="#ffffff" transform="matrix(1,0,0,1,300,239.16174338288647)"/><path d="M290.5 448L370 2.5L708.5 448H290.5Z" fill="#a3f5ef" transform="matrix(1,0,0,1,300,239.16174338288647)"/></g><g transform="matrix(0.2,0,0,0.2,481.6,339.5199951171875)"><path d="M291 448.5L369.5 2L2 448.5H291Z" fill="#ffffff" transform="matrix(1,0,0,1,600,422.4)"/><path d="M290.5 448L370 2.5L708.5 448H290.5Z" fill="#a3f5ef" transform="matrix(1,0,0,1,600,422.4)"/></g></svg>