<svg id="canvas" height="auto" xmlns="http://www.w3.org/2000/svg" version="1.1" xmlns:xlink="http://www.w3.org/1999/xlink" viewBox="0 0 900 512" width="auto" style="width: auto; height: auto;"><defs><linearGradient gradientTransform="matrix(6.123233995736766e-17,1,-1,6.123233995736766e-17,0,0)"><stop stop-color="#f9cdad" offset="0"/><stop stop-color="#d9f9ad" offset="1"/></linearGradient><linearGradient gradientTransform="matrix(6.123233995736766e-17,1,-1,6.123233995736766e-17,0,0)" id="SvgjsLinearGradient1035"><stop stop-color="#fc9d9a" offset="0"/><stop stop-color="#f9fc9a" offset="1"/></linearGradient><linearGradient gradientTransform="matrix(6.123233995736766e-17,1,-1,6.123233995736766e-17,0,0)"><stop stop-color="#83af9b" offset="0"/><stop stop-color="#8397af" offset="1"/></linearGradient><linearGradient gradientTransform="matrix(6.123233995736766e-17,1,-1,6.123233995736766e-17,0,0)" id="SvgjsLinearGradient1036"><stop stop-color="#c8c8a9" offset="0"/><stop stop-color="#a9c8a9" offset="1"/></linearGradient><linearGradient gradientTransform="matrix(6.123233995736766e-17,1,-1,6.123233995736766e-17,0,0)"><stop stop-color="#fe4365" offset="0"/><stop stop-color="#fedc43" offset="1"/></linearGradient></defs><rect width="900" height="512" fill="#9ee3ffff"/><path d="M397.8644790566723 453.64922365671634C347.80331308011813 478.0720864436231 272.7637246667112 464.06263841606335 212.95783825707855 461.78650973788046C153.1519518474459 459.5103810596976 87.93837084175459 470.18218066376585 39.029160598876274 439.99245158761926C-9.880049644002042 409.80272251147267 -51.509310257157665 333.76458400532795 -80.4974232001914 280.64813528100063C-109.48553614322515 227.53168655667332 -136.87217451027803 170.48054249871342 -134.89951705932617 121.2937592416555C-132.92685960837431 72.10697598459757 -99.49928682354006 32.33313149515527 -68.66147849448032 -14.472564261346946C-37.82367016542058 -61.27826001784916 5.0369779864199415 -129.65595029043558 50.12733291503224 -159.5404152973578C95.21768784364454 -189.42488030428004 148.52341737212328 -193.03638630467952 201.88065107719348 -193.77935430288034C255.23788478226368 -194.52232230108115 325.54317213143815 -191.44277903910043 370.2707351454534 -163.99822328656268C414.9982981594686 -136.5536675340249 442.5684062398673 -77.528354425511 470.2460291612849 -29.112019787653765C497.9236520827026 19.30431485020347 529.1566718481059 69.10622573989849 536.3364726739591 126.49978454058078C543.5162734998122 183.89334334126306 536.4034997192846 260.7244264970841 513.3248341164035 315.24933301644C490.24616851352243 369.7742395357959 447.9256450332265 429.2263608698096 397.8644790566723 453.64922365671634C347.80331308011813 478.0720864436231 272.7637246667112 464.06263841606335 212.95783825707855 461.78650973788046 " fill="url(#SvgjsLinearGradient1035)" stroke="none" opacity="0.5"/><path d="M817.8780842641374 362.56001183180484C772.6619053608817 394.67337609194743 710.7787815617269 411.6072486448638 653.3263098119455 414.8440317604864C595.8738380621642 418.08081487610906 523.8505007446283 416.7890540202389 473.16325376544944 381.9807105255407C422.47600678627055 347.1723670308425 379.23000394462167 262.1784446631919 349.2028279368723 205.99397079229726C319.1756519291229 149.80949692140257 293.08652526237006 98.93954449573863 293.00019771895313 44.87386730017266C292.9138701755362 -9.191809895393305 321.1113367737424 -69.9099237813472 348.68486267637064 -118.40009238109846C376.2583885789989 -166.89026098084972 411.1537215570082 -220.75035046097486 458.4413531347228 -246.06714429833482C505.7289847124373 -271.3839381356948 575.1315644393599 -270.49128117096313 632.4106521426578 -270.30085540525835C689.6897398459557 -270.11042963955356 751.7447465563978 -271.66252058942683 802.1158793545103 -244.92458970410627C852.4870121526228 -218.18665881878567 903.0557383280157 -160.51170243416382 934.6374489313329 -109.87327009333481C966.2191595346501 -59.2348377525058 993.275153924389 3.5664849587068375 991.6061429744135 58.90600434086775C989.937132024438 114.24552372302867 953.5780596831928 171.55484495114115 924.6233832314801 222.16384619963065C895.6687067797675 272.7728474481202 863.0942631673933 330.44664757166225 817.8780842641374 362.56001183180484C772.6619053608817 394.67337609194743 710.7787815617269 411.6072486448638 653.3263098119455 414.8440317604864 " fill="none" stroke-width="4" stroke="url(#SvgjsLinearGradient1036)" opacity="0.5"/><path d="M448.38305513694274 695.3996508650278C407.72334340592363 731.9797608485453 366.70610509811013 775.4237791328535 313.7939142284152 785.4370504638289C260.88172335872025 795.4503217948043 181.4605063269222 781.1627259539362 130.9099099187731 755.4792788508805C80.35931351062402 729.7958317478249 40.97100316446108 682.2803810846908 10.490335779520706 631.3363678454948C-19.99033160541967 580.3923546062989 -53.05688378653602 512.3489339858005 -51.97409439086914 449.8151994157047C-50.89130499520226 387.28146484560887 -11.281475659174191 311.3708119573165 16.98707215352198 256.13396042492C45.25561996621815 200.8971088925235 73.52824222404442 145.63774771723826 117.63719248530785 118.3940902213256C161.74614274657128 91.15043272541295 226.50560450580582 92.7972304659218 281.6407737211026 92.67201544944413C336.7759429363994 92.54680043296646 402.88753657313504 91.45681565682474 448.4482077770886 117.64280012245956C494.00887898104224 143.82878458809438 526.9810440457185 201.5235048208386 555.0048009448242 249.78792224325306C583.0285578439299 298.05233966566755 616.1328518934383 354.5345599370345 616.5907491717227 407.2293046569462C617.048646450007 459.92404937685797 585.7868002869934 517.9279995280432 557.75218461453 565.9563905627235C529.7175689420667 613.9847815974038 489.04276686796186 658.8195408815102 448.38305513694274 695.3996508650278C407.72334340592363 731.9797608485453 366.70610509811013 775.4237791328535 313.7939142284152 785.4370504638289 " fill="url(#SvgjsLinearGradient1035)" stroke="none" opacity="0.5"/></svg>