<svg id="canvas" height="auto" xmlns="http://www.w3.org/2000/svg" version="1.1" xmlns:xlink="http://www.w3.org/1999/xlink" viewBox="0 0 900 512" width="auto" style="width: auto; height: auto;"><rect width="900" height="512" fill="#9b7d7dff"/><path d="M0 -92.85337498018733C30.72 -92.85337498018733 71.67999999999999 -5.813374980187319 102.4 -5.813374980187319S174.07999999999998 -92.85337498018733 204.8 -92.85337498018733S276.48 -5.813374980187319 307.20000000000005 -5.813374980187319S378.88000000000005 -92.85337498018733 409.6 -92.85337498018733S481.28000000000003 -5.813374980187319 512 -5.813374980187319S583.68 -92.85337498018733 614.4 -92.85337498018733S686.0799999999999 -5.813374980187319 716.8 -5.813374980187319S788.4799999999999 -92.85337498018733 819.1999999999999 -92.85337498018733S890.8799999999999 -5.813374980187319 921.5999999999999 -5.813374980187319S993.2799999999999 -92.85337498018733 1023.9999999999999 -92.85337498018733S1095.6799999999998 -5.813374980187319 1126.3999999999999 -5.813374980187319L900 512L0 512Z " fill="#45ada8"/><path d="M0 77.81329168647933C30.72 77.81329168647933 71.67999999999999 164.85329168647934 102.4 164.85329168647934S174.07999999999998 77.81329168647933 204.8 77.81329168647933S276.48 164.85329168647934 307.20000000000005 164.85329168647934S378.88000000000005 77.81329168647933 409.6 77.81329168647933S481.28000000000003 164.85329168647934 512 164.85329168647934S583.68 77.81329168647933 614.4 77.81329168647933S686.0799999999999 164.85329168647934 716.8 164.85329168647934S788.4799999999999 77.81329168647933 819.1999999999999 77.81329168647933S890.8799999999999 164.85329168647934 921.5999999999999 164.85329168647934S993.2799999999999 77.81329168647933 1023.9999999999999 77.81329168647933S1095.6799999999998 164.85329168647934 1126.3999999999999 164.85329168647934L900 512L0 512Z " fill="#547980"/><path d="M0 248.479958353146C30.72 248.479958353146 71.67999999999999 335.519958353146 102.4 335.519958353146S174.07999999999998 248.479958353146 204.8 248.479958353146S276.48 335.519958353146 307.20000000000005 335.519958353146S378.88000000000005 248.479958353146 409.6 248.479958353146S481.28000000000003 335.519958353146 512 335.519958353146S583.68 248.479958353146 614.4 248.479958353146S686.0799999999999 335.519958353146 716.8 335.519958353146S788.4799999999999 248.479958353146 819.1999999999999 248.479958353146S890.8799999999999 335.519958353146 921.5999999999999 335.519958353146S993.2799999999999 248.479958353146 1023.9999999999999 248.479958353146S1095.6799999999998 335.519958353146 1126.3999999999999 335.519958353146L900 512L0 512Z " fill="#9de0ad"/><path d="M0 419.14662501981263C30.72 419.14662501981263 71.67999999999999 506.18662501981265 102.4 506.18662501981265S174.07999999999998 419.14662501981263 204.8 419.14662501981263S276.48 506.18662501981265 307.20000000000005 506.18662501981265S378.88000000000005 419.14662501981263 409.6 419.14662501981263S481.28000000000003 506.18662501981265 512 506.18662501981265S583.68 419.14662501981263 614.4 419.14662501981263S686.0799999999999 506.18662501981265 716.8 506.18662501981265S788.4799999999999 419.14662501981263 819.1999999999999 419.14662501981263S890.8799999999999 506.18662501981265 921.5999999999999 506.18662501981265S993.2799999999999 419.14662501981263 1023.9999999999999 419.14662501981263S1095.6799999999998 506.18662501981265 1126.3999999999999 506.18662501981265L900 512L0 512Z " fill="#e5fcc2"/><path d="M0 589.8132916864793C30.72 589.8132916864793 71.67999999999999 676.8532916864792 102.4 676.8532916864792S174.07999999999998 589.8132916864793 204.8 589.8132916864793S276.48 676.8532916864792 307.20000000000005 676.8532916864792S378.88000000000005 589.8132916864793 409.6 589.8132916864793S481.28000000000003 676.8532916864792 512 676.8532916864792S583.68 589.8132916864793 614.4 589.8132916864793S686.0799999999999 676.8532916864792 716.8 676.8532916864792S788.4799999999999 589.8132916864793 819.1999999999999 589.8132916864793S890.8799999999999 676.8532916864792 921.5999999999999 676.8532916864792S993.2799999999999 589.8132916864793 1023.9999999999999 589.8132916864793S1095.6799999999998 676.8532916864792 1126.3999999999999 676.8532916864792L900 512L0 512Z " fill="#594f4f"/></svg>