<svg id="canvas" height="auto" xmlns="http://www.w3.org/2000/svg" version="1.1" xmlns:xlink="http://www.w3.org/1999/xlink" viewBox="0 0 900 512" width="auto" style="width: auto; height: auto;"><rect width="900" height="512" fill="#ffffffff"/><path d="M-450,-207.6594081598163C-415.98542414198744,-201.54812711907203,-313.61642955957285,-184.34128672572544,-245.91254485192474,-170.99172191535075C-178.20866014427662,-157.64215710497606,-105.72065095596757,-143.35974404176773,-43.77669175411123,-127.5620192975682C18.167267447745104,-111.76429455336867,66.8600370818099,-86.3443907111728,125.75121035921332,-76.20537345015356C184.64238363661673,-66.06635618913431,243.8014460656358,-74.24858808421196,309.57034791030924,-66.7279157314527C375.3392497549827,-59.20724337869344,456.52357142494316,-43.29507093762032,520.3646214272541,-31.081339333598017C584.205671429565,-18.86760772957571,629.3440848287171,-6.682514636282471,692.6166479241747,6.554473892681145C755.8892110196323,19.79146242164476,865.4361079873624,41.37623884893326,900,48.340591840183684L 900 512 L -450 512 Z" fill="#227c9d"/><path d="M-450,-164.64860941277593C-413.7894928349932,-158.59682961585568,-307.0385921252078,-140.99660456530535,-232.7369570099594,-128.3379306312545C-158.43532189471102,-115.67925669720363,-83.935427578097,-110.26872122391643,-4.190189308509616,-88.69656580847075C75.55504896107777,-67.12441039302507,171.3483779817238,-23.888821865873183,245.73447260756495,1.095001861419572C320.1205672334061,26.078825588712327,371.0707870790674,47.14229153052732,442.12637844653744,61.20637655528577C513.1819698140075,75.27046158004423,595.755750553475,73.64493030623454,672.0680208123854,85.47951200997029C748.3802910712958,97.31409371370604,862.0113368020642,124.42480764974528,900,132.21386677770028L 900 512 L -450 512 Z" fill="#17c3b2"/><path d="M-450,-85.39108040601012C-407.92268752882404,-72.91941979807069,-273.36040867971184,-29.627954824661938,-197.53612517294434,-10.561116758373515C-121.71184166617684,8.505721307914907,-64.57966020786142,10.595239365032064,4.945701040604995,29.009947991720416C74.47106228907143,47.42465661840877,149.04799701198812,81.40148300522397,219.6160423178542,99.9271350017566C290.1840876237203,118.45278699828923,350.23638610365396,122.3741811092186,428.35397287580156,140.16385997091623C506.47155964794916,157.95353883261387,609.7138917633736,187.97020617127143,688.3215629507399,206.66520817194242C766.9292341381063,225.36021017261342,864.72026049179,244.72242800777562,900,252.33387197494227L 900 512 L -450 512 Z" fill="#ffcb77"/><path d="M-450,-41.07380107650755C-425.85325246765046,-37.694649943039224,-358.99964566165767,-39.68637047760516,-305.11951480590267,-20.798894275697595C-251.23938395014764,-1.9114180737900313,-185.6698809944732,55.219245548863796,-126.71921486546988,72.25105613493784C-67.76854873646656,89.28286672101189,-7.528652260465947,65.30228867398549,48.58448196811733,81.39196924074668C104.69761619670061,97.48164980750786,148.8957042035676,149.17313319214819,209.95959050602977,168.78913953550497C271.023476808492,188.40514587886176,354.3089603180669,187.0373763490466,414.96779978289044,199.08800730088743C475.62663924771397,211.13863825272824,519.8781796657362,221.0067550799938,573.9126272949709,241.09292524654992C627.9470749242056,261.17909541310604,684.8265901074607,303.534911258829,739.1744855582989,319.6050283002242C793.5223810091371,335.6751453416194,873.1957475930499,334.5288609624715,900,337.513627494921L 900 512 L -450 512 Z" fill="#fef9ef"/><path d="M-450,42.77163891771084C-406.50940308057534,55.60712012051097,-276.67302582446774,91.25010162347739,-189.05641848345215,119.78452613451164C-101.43981114243657,148.3189506455459,-16.251480393841973,187.65078402084333,75.6996440460934,213.97818598391635C167.65076848602877,240.30558794698936,269.71181103070353,252.06830985189802,362.6503281561601,277.74893791294977C455.5888452816167,303.42956597400155,543.7724681581932,337.3165200557826,633.3307467988332,368.06195435022687C722.8890254394731,398.80738864467116,855.5551244664722,446.52827879138414,900,462.2215436796156L 900 512 L -450 512 Z" fill="#fe6d73"/><path d="M-450,86.19359808912219C-403.05844078206064,103.46290898709688,-258.1348619404632,157.43353052668564,-168.350644692364,189.80946347697036C-78.56642744426479,222.18539642725509,3.95184681942348,251.55863663297865,88.70530348859525,280.4491957908306C173.45876015776702,309.33975494868247,248.58062747418978,337.72951837521157,340.1700953226666,363.1528184240819C431.75956317114344,388.5761184729522,544.9371264665673,402.4301359811491,638.2421105794562,432.98899608405264C731.547094692345,463.5478561869562,856.3736850965761,527.5864818819281,900,546.5059790415032L 900 512 L -450 512 Z" fill="#227c9d"/><path d="M-450,163.18921310181267C-392.6747961015683,184.32633220113036,-218.791732237914,250.2276895526486,-106.04877660940964,290.0119276977188C6.694179019094719,329.79616584278904,114.16750291712471,356.85500978629443,226.45773377102614,401.89464197223396C338.7479646249276,446.9342741581735,455.4355641425033,516.5048161012833,567.692608513999,560.2497208133559C679.9496528854946,603.9946255254285,844.6154347523332,647.0116786727842,900,664.3640702446698L 900 512 L -450 512 Z" fill="#17c3b2"/></svg>