<svg height="100%" width="100%" viewBox="0 0 1480 720" xmlns="http://www.w3.org/2000/svg"><path d="M 0,720 C 0,720 0,180 0,180 C 101.23125996810208,174.6794258373206 202.46251993620416,169.35885167464116 294,169 C 385.53748006379584,168.64114832535884 467.38118022328547,173.24401913875596 572,163 C 676.6188197767145,152.75598086124404 804.0127591706539,127.66507177033493 895,119 C 985.9872408293461,110.33492822966507 1040.5677830940988,118.09569377990431 1132,131 C 1223.4322169059012,143.9043062200957 1351.7161084529507,161.95215311004785 1480,180 C 1480,180 1480,720 1480,720 Z" stroke="none" strokewidth="0" fill="#0075ff66"></path><path d="M 0,720 C 0,720 0,360 0,360 C 107.11642743221688,333.4545454545455 214.23285486443376,306.90909090909093 320,330 C 425.76714513556624,353.09090909090907 530.1850079744817,425.8181818181818 611,420 C 691.8149920255183,414.1818181818182 749.0271132376396,329.8181818181818 852,311 C 954.9728867623604,292.1818181818182 1103.7065390749601,338.90909090909093 1216,358 C 1328.2934609250399,377.09090909090907 1404.1467304625198,368.5454545454545 1480,360 C 1480,360 1480,720 1480,720 Z" stroke="none" strokewidth="0" fill="#0075ff99"></path><path d="M 0,720 C 0,720 0,540 0,540 C 129.61403508771932,572.4401913875598 259.22807017543863,604.8803827751196 351,581 C 442.77192982456137,557.1196172248804 496.7017543859648,476.91866028708125 585,487 C 673.2982456140352,497.08133971291875 795.9649122807017,597.444976076555 907,605 C 1018.0350877192983,612.555023923445 1117.4385964912283,527.3014354066986 1211,501 C 1304.5614035087717,474.69856459330146 1392.280701754386,507.3492822966507 1480,540 C 1480,540 1480,720 1480,720 Z" stroke="none" strokewidth="0" fill="#0075ffff"></path></svg>