<svg id="canvas" height="auto" xmlns="http://www.w3.org/2000/svg" version="1.1" xmlns:xlink="http://www.w3.org/1999/xlink" viewBox="0 0 900 512" width="auto" style="width: auto; height: auto;"><rect width="900" height="512" fill="#e9fbff"/><path d="M485 273H900V512H485L485 273 " fill-opacity="1" fill="#caf0f8"/><path d="M431 176H0V0H431L431 176 " fill-opacity="1" fill="#00b4d8"/><path d="M431 138H0V0H431L431 138 " fill-opacity="1" fill="#ade8f4"/><path d="M490 373H900V512H490L490 373 " fill-opacity="1" fill="#0077b6"/><path d="M354 174H0V0H354L354 174 " fill-opacity="1" fill="#48cae4"/><path d="M380 375H0V512H380L380 375 " fill-opacity="1" fill="#ade8f4"/><path d="M352 156H0V0H352L352 156 " fill-opacity="1" fill="#03045e"/><path d="M588 282H900V512H588L588 282 " fill-opacity="1" fill="#023e8a"/><path d="M604 232H900V0H604L604 232 " fill-opacity="1" fill="#caf0f8"/><path d="M268 242H0V0H268L268 242 " fill-opacity="1" fill="#0096c7"/><path d="M624 325H900V512H624L624 325 " fill-opacity="1" fill="#023e8a"/><path d="M633 173H900V0H633L633 173 " fill-opacity="1" fill="#023e8a"/><path d="M224 289H0V512H224L224 289 " fill-opacity="1" fill="#00b4d8"/><path d="M547 472H900V512H547L547 472 " fill-opacity="1" fill="#0077b6"/><path d="M553 37H900V0H553L553 37 " fill-opacity="1" fill="#48cae4"/><path d="M225 122H0V0H225L225 122 " fill-opacity="1" fill="#0096c7"/><path d="M179 207H0V0H179L179 207 " fill-opacity="1" fill="#0077b6"/><path d="M173 287H0V512H173L173 287 " fill-opacity="1" fill="#0096c7"/><path d="M164 323H0V512H164L164 323 " fill-opacity="1" fill="#48cae4"/><path d="M738 179H900V0H738L738 179 " fill-opacity="1" fill="#ade8f4"/><path d="M699 24H900V0H699L699 24 " fill-opacity="1" fill="#0077b6"/><path d="M811 311H900V512H811L811 311 " fill-opacity="1" fill="#caf0f8"/><path d="M136 448H0V512H136L136 448 " fill-opacity="1" fill="#023e8a"/><path d="M81 289H0V512H81L81 289 " fill-opacity="1" fill="#48cae4"/><path d="M71 242H0V0H71L71 242 " fill-opacity="1" fill="#03045e"/><path d="M853 297H900V512H853L853 297 " fill-opacity="1" fill="#0096c7"/><path d="M28 319H0V512H28L28 319 " fill-opacity="1" fill="#ade8f4"/><path d="M827 457H900V512H827L827 457 " fill-opacity="1" fill="#00b4d8"/><path d="M58 50H0V0H58L58 50 " fill-opacity="1" fill="#48cae4"/><path d="M878 111H900V0H878L878 111 " fill-opacity="1" fill="#03045e"/></svg>