<svg id="canvas" height="auto" xmlns="http://www.w3.org/2000/svg" version="1.1" xmlns:xlink="http://www.w3.org/1999/xlink" viewBox="0 0 900 512" width="auto" style="width: auto; height: auto;"><rect width="900" height="512" fill="#e9fbff"/><path d="M468 289H900V512H468L468 289 " fill-opacity="1" fill="#c5e0dc"/><path d="M412 219H0V0H412L412 219 " fill-opacity="1" fill="#ece5ce"/><path d="M509 311H900V512H509L509 311 " fill-opacity="1" fill="#e08e79"/><path d="M345 271H0V512H345L345 271 " fill-opacity="1" fill="#774f38"/><path d="M562 262H900V512H562L562 262 " fill-opacity="1" fill="#e08e79"/><path d="M536 173H900V0H536L536 173 " fill-opacity="1" fill="#f1d4af"/><path d="M573 231H900V0H573L573 231 " fill-opacity="1" fill="#ece5ce"/><path d="M525 391H900V512H525L525 391 " fill-opacity="1" fill="#774f38"/><path d="M551 111H900V0H551L551 111 " fill-opacity="1" fill="#f1d4af"/><path d="M563 394H900V512H563L563 394 " fill-opacity="1" fill="#f1d4af"/><path d="M275 334H0V512H275L275 334 " fill-opacity="1" fill="#f1d4af"/><path d="M599 379H900V512H599L599 379 " fill-opacity="1" fill="#ece5ce"/><path d="M405 462H0V512H405L405 462 " fill-opacity="1" fill="#774f38"/><path d="M666 313H900V512H666L666 313 " fill-opacity="1" fill="#e08e79"/><path d="M210 213H0V0H210L210 213 " fill-opacity="1" fill="#e08e79"/><path d="M276 441H0V512H276L276 441 " fill-opacity="1" fill="#f1d4af"/><path d="M199 210H0V0H199L199 210 " fill-opacity="1" fill="#f1d4af"/><path d="M706 177H900V0H706L706 177 " fill-opacity="1" fill="#e08e79"/><path d="M712 356H900V512H712L712 356 " fill-opacity="1" fill="#c5e0dc"/><path d="M726 318H900V512H726L726 318 " fill-opacity="1" fill="#774f38"/><path d="M662 454H900V512H662L662 454 " fill-opacity="1" fill="#f1d4af"/><path d="M612 8H900V0H612L612 8 " fill-opacity="1" fill="#ece5ce"/><path d="M740 361H900V512H740L740 361 " fill-opacity="1" fill="#ece5ce"/><path d="M192 487H0V512H192L192 487 " fill-opacity="1" fill="#774f38"/><path d="M165 501H0V512H165L165 501 " fill-opacity="1" fill="#ece5ce"/><path d="M796 98H900V0H796L796 98 " fill-opacity="1" fill="#ece5ce"/><path d="M817 427H900V512H817L817 427 " fill-opacity="1" fill="#f1d4af"/><path d="M827 95H900V0H827L827 95 " fill-opacity="1" fill="#ece5ce"/><path d="M843 128H900V0H843L843 128 " fill-opacity="1" fill="#e08e79"/><path d="M881 122H900V0H881L881 122 " fill-opacity="1" fill="#c5e0dc"/></svg>