<svg id="canvas" height="auto" xmlns="http://www.w3.org/2000/svg" version="1.1" xmlns:xlink="http://www.w3.org/1999/xlink" viewBox="0 0 900 512" width="auto" style="width: auto; height: auto;"><defs><linearGradient gradientTransform="matrix(6.123233995736766e-17,1,-1,6.123233995736766e-17,0,0)" id="SvgjsLinearGradient1034"><stop stop-color="#ade8f4" offset="0"/><stop stop-color="#b9adf4" offset="1"/></linearGradient><linearGradient gradientTransform="matrix(6.123233995736766e-17,1,-1,6.123233995736766e-17,0,0)" id="SvgjsLinearGradient1033"><stop stop-color="#0077b6" offset="0"/><stop stop-color="#3f00b6" offset="1"/></linearGradient><linearGradient gradientTransform="matrix(6.123233995736766e-17,1,-1,6.123233995736766e-17,0,0)"><stop stop-color="#48cae4" offset="0"/><stop stop-color="#6248e4" offset="1"/></linearGradient><linearGradient gradientTransform="matrix(6.123233995736766e-17,1,-1,6.123233995736766e-17,0,0)"><stop stop-color="#caf0f8" offset="0"/><stop stop-color="#d2caf8" offset="1"/></linearGradient><linearGradient gradientTransform="matrix(6.123233995736766e-17,1,-1,6.123233995736766e-17,0,0)"><stop stop-color="#023e8a" offset="0"/><stop stop-color="#4e028a" offset="1"/></linearGradient><linearGradient gradientTransform="matrix(6.123233995736766e-17,1,-1,6.123233995736766e-17,0,0)"><stop stop-color="#03045e" offset="0"/><stop stop-color="#5d035e" offset="1"/></linearGradient><linearGradient gradientTransform="matrix(6.123233995736766e-17,1,-1,6.123233995736766e-17,0,0)"><stop stop-color="#0096c7" offset="0"/><stop stop-color="#3100c7" offset="1"/></linearGradient><linearGradient gradientTransform="matrix(6.123233995736766e-17,1,-1,6.123233995736766e-17,0,0)"><stop stop-color="#90e0ef" offset="0"/><stop stop-color="#9f90ef" offset="1"/></linearGradient><linearGradient gradientTransform="matrix(6.123233995736766e-17,1,-1,6.123233995736766e-17,0,0)"><stop stop-color="#00b4d8" offset="0"/><stop stop-color="#2400d8" offset="1"/></linearGradient></defs><rect width="900" height="512" fill="#9ee3ffff"/><path d="M755.2477410175761 652.5993028429289C706.196475829363 680.1253751616105 636.1705306331714 679.1629954333404 576.7844552794918 679.0364956317765C517.3983799258124 678.9099958302126 446.28458524373855 682.5125999515151 398.93128889549905 651.8403040335454C351.57799254725956 621.1680081155757 322.306871587387 547.6994684194228 292.6646771900548 495.00272012395834C263.02248279272266 442.30597182849385 222.97774098034984 389.8524694926033 221.07812251150608 335.65981426075854C219.17850404266233 281.4671590289138 252.280494836761 220.00931433546958 281.2669663769923 169.84678873288968C310.25343791722355 119.68426313030977 349.627118988695 61.12170042291456 394.9969517528939 34.68466064527911C440.3667845170928 8.247620867643665 499.37047438974713 11.569084007165305 553.4859629621858 11.224550067077018C607.6014515346244 10.880016126988732 667.198421355407 4.271214404647651 719.6898831875257 32.61745700474938C772.1813450196443 60.963699604851115 831.7217783363442 128.8169155026204 868.4347339548972 181.3020056676874C905.1476895734502 233.78709583275443 939.524731489865 292.09832198648496 939.9676168988439 347.52799799515157C940.4105023078228 402.95767400381817 901.878692388982 463.03484424505757 871.0920464087708 513.8800617196871C840.3054004285596 564.7252791943166 804.2990062057893 625.0732305242473 755.2477410175761 652.5993028429289C706.196475829363 680.1253751616105 636.1705306331714 679.1629954333404 576.7844552794918 679.0364956317765 " fill="url(#SvgjsLinearGradient1033)" stroke="none" opacity="0.5"/><path d="M696.866526207295 763.8005652755039C632.5433556095751 812.2390791387659 486.99487652861296 795.5277966704389 396.00075691566775 786.2333265195084C305.00663730272254 776.938856368578 206.2330700430712 764.1660981139748 150.90180852962385 708.0337443699214C95.5705470161765 651.9013906258679 64.67198239494819 531.7976480771663 64.01318783498368 449.43920405518713C63.35439327501918 367.080760033208 87.33074628345835 265.2376516440741 146.94904116983682 213.8830802380465C206.56733605621528 162.52850883201887 332.0460893891716 139.3973380552984 421.72295715325447 141.31177561902138C511.39982491733736 143.22621318274435 624.9741105295453 166.32129433356516 685.0102477543342 225.3697056203843C745.046384979123 284.41811690720345 779.9637340931604 405.8637667307497 781.9397805019872 495.6022433399363C783.9158269108141 585.3407199491229 761.1896968050149 715.362051412242 696.866526207295 763.8005652755039C632.5433556095751 812.2390791387659 486.99487652861296 795.5277966704389 396.00075691566775 786.2333265195084 " fill="url(#SvgjsLinearGradient1034)" stroke="none" opacity="0.5"/><path d="M688.4226674089072 412.5090205057805C634.1044287050131 448.16279922063376 545.1157968559237 450.1869352468679 476.3315062558769 448.0076600703225C407.54721565583003 445.8283848937771 326.73410641659746 431.953260072604 275.71692380862606 399.4333694465078C224.6997412006547 366.9134788204116 190.7074170678785 313.8689938565405 170.2284106080487 252.88831631374507C149.74940414821893 191.90763877094963 133.09752636422647 98.58559621630445 152.84288504964735 33.54930418973538C172.5882437350682 -31.48698783683369 233.72805369271734 -95.40541376926618 288.70056272057394 -137.32943584566937C343.6730717484305 -179.25345792207256 410.00630346306014 -218.10524470457048 482.6779392167869 -217.99482826868376C555.3495749705137 -217.88441183279704 660.4791204996295 -179.942722939603 724.7303772429348 -136.666937230349C788.98163398624 -93.391151521095 855.2670528039005 -20.13210151508511 868.1854796766181 41.65988598684015C881.1039065493358 103.45187348876544 832.2014071905262 172.27679869471257 802.240938479241 234.08498778120264C772.2804697679558 295.8931768676927 742.7409061128012 376.8552417909272 688.4226674089072 412.5090205057805C634.1044287050131 448.16279922063376 545.1157968559237 450.1869352468679 476.3315062558769 448.0076600703225 " fill="url(#SvgjsLinearGradient1034)" stroke="none" opacity="0.5"/></svg>