<?xml version="1.0" standalone="no"?><!DOCTYPE svg PUBLIC "-//W3C//DTD SVG 1.1//EN" "http://www.w3.org/Graphics/SVG/1.1/DTD/svg11.dtd"><svg t="1721003803264" class="icon" viewBox="0 0 1213 1024" version="1.1" xmlns="http://www.w3.org/2000/svg" p-id="4318" xmlns:xlink="http://www.w3.org/1999/xlink" width="236.9140625" height="200"><path d="M606.663417 583.126649m-202.221139 0a202.221139 202.221139 0 1 0 404.442278 0 202.221139 202.221139 0 1 0-404.442278 0Z" p-id="4319" fill="#ffffff"></path><path d="M1097.780094 157.327731H910.045326C855.398717 105.320223 843.121159 3.600078 748.916716 0.014343H462.531193c-98.23481 10.040059-113.309242 109.551391-163.782054 157.327731H115.561084A115.890971 115.890971 0 0 0 0 272.903157v635.535759a115.890971 115.890971 0 0 0 115.561084 115.561084h982.21901a115.890971 115.890971 0 0 0 115.561083-115.561084V272.888814a115.890971 115.890971 0 0 0-115.561083-115.561083z m-821.850576 174.008572h-86.660056a28.901028 28.901028 0 0 1 0-57.787713h86.660056a28.901028 28.901028 0 1 1 0 57.787713z m330.733899 519.329243c-147.732302 0-267.538897-119.777909-267.538897-267.538897s119.792251-267.567583 267.538897-267.567582S874.202314 435.336975 874.202314 583.097963s-119.777909 267.567583-267.538897 267.567583z" p-id="4320" fill="#ffffff"></path></svg>