<?xml version="1.0" standalone="no"?><!DOCTYPE svg PUBLIC "-//W3C//DTD SVG 1.1//EN" "http://www.w3.org/Graphics/SVG/1.1/DTD/svg11.dtd"><svg t="1721018750126" class="icon" viewBox="0 0 1024 1024" version="1.1" xmlns="http://www.w3.org/2000/svg" p-id="5086" xmlns:xlink="http://www.w3.org/1999/xlink" width="200" height="200"><path d="M817.777778 903.111111h-597.333334c-55.466667 0-99.555556-45.511111-99.555555-99.555555v-597.333334c0-55.466667 44.088889-99.555556 99.555555-99.555555h597.333334c54.044444 0 99.555556 44.088889 99.555555 99.555555v597.333334c0 54.044444-45.511111 99.555556-99.555555 99.555555zM280.177778 664.177778c-9.955556 9.955556-9.955556 25.6 0 35.555555s25.6 9.955556 34.133333 0l35.555556-35.555555 34.133333 35.555555c9.955556 9.955556 25.6 9.955556 35.555556 0s9.955556-25.6 0-35.555555L384 628.622222l35.555556-35.555555c9.955556-9.955556 9.955556-25.6 0-35.555556s-25.6-9.955556-35.555556 0l-34.133333 35.555556-35.555556-35.555556c-9.955556-9.955556-25.6-9.955556-34.133333 0-9.955556 9.955556-9.955556 25.6 0 35.555556l34.133333 35.555555-34.133333 35.555556z m184.888889-378.311111c-9.955556-9.955556-25.6-9.955556-35.555556 0l-85.333333 83.911111-29.866667-28.444445c-9.955556-9.955556-29.866667-9.955556-39.822222 0-5.688889 9.955556-5.688889 25.6 5.688889 34.133334l49.777778 49.777777c9.955556 9.955556 25.6 9.955556 34.133333 0l99.555555-99.555555c5.688889-9.955556 5.688889-29.866667 1.422223-39.822222zM742.4 355.555556h-199.111111c-14.222222 0-25.6 9.955556-25.6 25.6s9.955556 25.6 25.6 25.6h199.111111c14.222222 0 25.6-9.955556 25.6-25.6s-9.955556-25.6-25.6-25.6z m0 248.888888h-199.111111c-14.222222 0-25.6 9.955556-25.6 25.6s9.955556 25.6 25.6 25.6h199.111111c14.222222 0 25.6-9.955556 25.6-25.6s-9.955556-25.6-25.6-25.6z" fill="#ffffff" p-id="5087"></path></svg>