<?xml version="1.0" ?><svg id="Layer_1" style="enable-background:new 0 0 48 48;" version="1.1" viewBox="0 0 48 48" xml:space="preserve" xmlns="http://www.w3.org/2000/svg" xmlns:xlink="http://www.w3.org/1999/xlink"><style type="text/css">
	.st0{fill:#FF7170;}
	.st1{fill:#FFFFFF;}
	.st2{fill:#FFBEA0;}
	.st3{fill:#AD9DC4;}
	.st4{fill:#64D3FF;}
	.st5{fill:#FFBF5B;}
	.st6{fill:#8CCDA5;}
	.st7{fill:#D2E18C;}
	.st8{fill:#E2E2E2;}
	.st9{fill:#2A3883;}
	.st10{fill:none;stroke:#000000;stroke-width:1.5;stroke-miterlimit:10;}
</style><g><g><path class="st6" d="M7.9,32.1c-1.3,0-2.3-1-2.3-2.3v-9.9C5.5,9.7,13.8,1.5,24,1.5h0c10.2,0,18.5,8.3,18.5,18.5v9.9    c0,1.3-1,2.3-2.3,2.3"/><g><path class="st2" d="M10.2,32.1v-3.5c0-7.6,6.2-13.8,13.8-13.8h0c7.6,0,13.8,6.2,13.8,13.8v3.5"/></g><g><polygon class="st9" points="33.3,43.2 23.7,46.5 14,43.2 9,31.7 23.7,22.8 38.3,31.7    "/></g><g><path class="st5" d="M15.3,36.3c1.2,3.4,0.3,6.8-2.2,7.7c-2.4,0.9-5.3-1.1-6.6-4.5c-1.2-3.4-0.3-6.8,2.2-7.7     C11.1,31,14.1,33,15.3,36.3z"/></g><g><path class="st5" d="M32.7,36.3c-1.2,3.4-0.3,6.8,2.2,7.7c2.4,0.9,5.3-1.1,6.6-4.5c1.2-3.4,0.3-6.8-2.2-7.7     C36.9,31,33.9,33,32.7,36.3z"/></g></g><path d="M43.2,29.8v-9.9C43.2,9.3,34.6,0.7,24,0.7C13.4,0.7,4.8,9.3,4.8,19.9v9.9c0,1.2,0.7,2.3,1.8,2.8c-1.3,1.7-1.7,4.5-0.7,7.2   C6.5,41.5,7.6,43,9,44c1,0.7,2,1,3,1c0.5,0,1-0.1,1.4-0.3c0.4-0.1,0.7-0.3,1-0.6l9.2,3.1l9.7-3.3c0.4,0.3,0.8,0.6,1.3,0.7   c0.5,0.2,0.9,0.3,1.4,0.3c1,0,2-0.3,3-1c1.4-0.9,2.5-2.4,3.1-4.2c1-2.7,0.6-5.5-0.7-7.2C42.5,32.1,43.2,31,43.2,29.8z M12.9,43.3   c-0.9,0.3-2,0.1-3.1-0.6c-1.1-0.8-2-2-2.6-3.5c-1.1-3-0.3-6,1.7-6.7c0.3-0.1,0.6-0.2,0.9-0.2c1.8,0,3.8,1.7,4.7,4.2   c0.5,1.5,0.6,3,0.3,4.3C14.5,42.1,13.8,42.9,12.9,43.3z M37.1,30.1l-13.4-8.1l-12.7,7.7v-1c0-7.2,5.9-13,13.1-13   c7.2,0,13,5.9,13,13V30.1z M15.6,42.9c0.3-0.5,0.6-1,0.7-1.6c0.4-1.6,0.3-3.4-0.3-5.2c-0.9-2.5-2.7-4.3-4.7-4.9l12.3-7.5l12.6,7.6   c-1.8,0.7-3.4,2.5-4.2,4.8c-0.6,1.8-0.8,3.6-0.3,5.2c0.1,0.5,0.4,1,0.6,1.4l-8.7,2.9L15.6,42.9z M40.7,39.2   c-0.5,1.5-1.4,2.7-2.6,3.5c-1,0.7-2.1,0.9-3.1,0.6c-0.9-0.3-1.6-1.2-2-2.4c-0.4-1.3-0.3-2.8,0.3-4.3c0.9-2.5,2.9-4.2,4.7-4.2   c0.3,0,0.6,0.1,0.9,0.2C41,33.3,41.8,36.3,40.7,39.2z M41.7,29.8c0,0.9-0.7,1.6-1.6,1.6v0.1c-0.2-0.1-0.4-0.2-0.6-0.3   c-0.3-0.1-0.6-0.2-1-0.2v-2.3c0-8-6.5-14.5-14.6-14.5c-8,0-14.5,6.5-14.5,14.5v1.9L8.6,31l0,0c-0.1,0-0.1,0-0.2,0   c-0.2,0.1-0.4,0.2-0.6,0.3v-0.1c-0.9,0-1.6-0.7-1.6-1.6v-9.9c0-9.8,7.9-17.7,17.7-17.7c9.8,0,17.7,7.9,17.7,17.7V29.8z"/></g></svg>