<?xml version="1.0" ?><svg data-name="Layer 1" id="Layer_1" viewBox="0 0 272 272" xmlns="http://www.w3.org/2000/svg"><defs><style>.cls-1{fill:#f54337;}.cls-2{fill:#e57373;}.cls-3{fill:#ffeb3c;}</style></defs><title/><rect class="cls-1" height="8" width="208" x="32" y="48"/><rect class="cls-1" height="8" width="208" x="32" y="192"/><rect class="cls-1" height="8" width="208" x="32" y="120"/><path class="cls-2" d="M40,256H16V16a8,8,0,0,1,8-8h8a8,8,0,0,1,8,8Z"/><path class="cls-2" d="M256,256H232V16a8,8,0,0,1,8-8h8a8,8,0,0,1,8,8Z"/><rect class="cls-1" height="24" rx="4" ry="4" width="256" x="8" y="240"/><rect class="cls-3" height="40" rx="8" ry="8" width="24" x="64" y="32"/><rect class="cls-3" height="40" rx="8" ry="8" width="24" x="104" y="32"/><rect class="cls-3" height="40" rx="8" ry="8" width="24" x="144" y="32"/><rect class="cls-3" height="40" rx="8" ry="8" width="24" x="112" y="104"/><rect class="cls-3" height="40" rx="8" ry="8" width="24" x="56" y="104"/><rect class="cls-3" height="40" rx="8" ry="8" width="24" x="112" y="176"/><rect class="cls-3" height="40" rx="8" ry="8" width="24" x="80" y="176"/><rect class="cls-3" height="40" rx="8" ry="8" width="24" x="160" y="104"/><rect class="cls-3" height="40" rx="8" ry="8" width="24" x="192" y="104"/></svg>