<?xml version="1.0" ?><svg height="1000" width="1000" xmlns="http://www.w3.org/2000/svg"><path d="M811 952c-28-4-46-18-81-63a5989 5989 0 00-72-89H512l-10 4c-4 3-8 10-8 15 0 7 6 15 13 18l87 2c97 0 90 0 88 1a455 455 0 01-189 43 430 430 0 01-384-265c-9-23-19-56-18-58l18-1c16 0 17 0 21-2 13-8 13-26 0-34-4-2-5-2-23-3H85c-2 0-2 0-5-28a418 418 0 01169-370l6-3h174l5-3c12-8 12-26 0-33l-5-3-49-1c-57 0-53 0-53-1a463 463 0 01173-38 421 421 0 01396 559l-40 1h-40l-4 3c-6 4-8 9-8 16 0 8 2 13 8 17l4 2 32 1c36 0 34-1 29 8a455 455 0 01-54 85l37 47c23 28 31 39 38 52 16 35 11 67-16 99-6 6-13 11-25 16-17 7-32 9-46 6zM427 835c12-7 12-25 0-32-5-3-5-3-18-3-12 0-13 0-17 2-16 10-12 33 6 36h15c8 0 10 0 14-3zm332-203l5-8c2-14-7-24-22-24h-7l-4 6-4 6c0 1 12 17 19 24 2 3 2 3 6 1 2 0 5-3 7-5zm-545-73c2 0 1-2-3-13l-6-19c-1-7-1-7-9-6-14 1-22 17-16 29 6 8 13 10 34 9zm-19-120l1-12a253 253 0 013-26h-68c-8 1-12 5-16 11-3 6-3 10 0 16s9 10 15 11h65zm428-322c7-2 13-11 13-18s-6-16-13-18l-21-1c-16 0-17 0-21 2-16 10-12 33 6 36 7 1 32 0 36-1zm-113-2c16-9 9-35-10-35a19 19 0 1010 35z" fill="#d3f5fd"/><path d="M809 952c-19-4-34-13-51-30l-33-40-65-80-2-2-70-1-76 1-10 4c-4 3-8 10-8 15 0 7 6 15 13 18l88 2c96 0 89 0 87 1a455 455 0 01-189 43 430 430 0 01-384-265c-9-23-19-56-18-58l18-1c16 0 17 0 21-2 13-8 13-26 0-34-4-2-5-2-23-3H85c-2 0-2 0-5-28a418 418 0 01169-370l6-3h174l5-3c12-8 12-26 0-33l-5-3-49-1c-57 0-53 0-53-1a463 463 0 01173-38 421 421 0 01396 559l-40 1h-40l-4 3c-6 4-8 9-8 16 0 8 2 13 8 17l4 2 32 1c36 0 34-1 29 8a458 458 0 01-54 86c1 3 16 21 35 45 31 37 40 51 46 71 3 12 3 29 0 40s-10 24-18 35-11 13-23 18c-19 9-39 13-55 10zM427 835c12-7 12-25 0-32-5-3-5-3-18-3-12 0-13 0-17 2-16 10-12 33 6 36h15c8 0 10 0 14-3zm86-185c1 0 2-1 2-3 0-5 3-12 7-14l9-3 16-5a186 186 0 0083-294c-2-4-1-11 1-15 1-2 2-4 1-5l-9-9-9-8-5 3c-8 4-10 3-29-8-15-8-17-11-18-20v-5l-11-4-11-3-4 4c-5 5-8 6-15 6l-20-2a178 178 0 00-125 36c-3 3-7 6-9 6-4 2-10 2-14 0s-5-1-13 8a201 201 0 0038 304l5-3 9-4c4 0 6 0 15 5l21 8 13 6c3 2 6 8 6 13s0 5 24 7c5 1 40 0 42-1zm246-18c9-10 6-24-6-30-4-2-6-2-12-2h-7l-4 6-3 7c0 2 14 20 19 24 2 2 2 2 6 0 2 0 5-3 7-5zm-543-73l-5-16-5-18c-1-4-2-4-9-4s-13 4-16 9c-7 12 0 27 13 29h22zm-21-120l1-9a325 325 0 013-29h-68c-8 1-12 5-16 11-3 6-3 10 0 16s9 10 15 11h65zm428-322c7-2 13-11 13-18s-6-16-13-18l-21-1c-16 0-17 0-21 2-16 10-12 33 6 36 7 1 32 0 36-1zm-113-2c16-9 9-35-10-35a19 19 0 1010 35z" fill="#fde790"/><path d="M809 952c-19-4-34-13-51-30l-33-40a5308 5308 0 00-97-122l-33-40-14 4a290 290 0 11-130-561c14-2 20-2 41-2a289 289 0 01239 445c-3 3-4 6-4 7l10 14 10 13 19 23a6213 6213 0 0192 115c31 37 40 51 46 71 3 12 3 29 0 40s-10 24-18 35-11 13-23 18c-19 9-39 13-54 10zM513 650c1 0 2-1 2-3 0-5 3-12 7-14l9-3 16-5a186 186 0 0083-294c-2-4-1-11 1-15 1-2 2-4 1-5l-9-9-9-8-5 3c-8 4-10 3-29-8-15-8-17-11-18-20v-5l-11-4-11-3-4 4c-5 5-8 6-15 6l-20-2a178 178 0 00-125 36c-3 3-7 6-9 6-4 2-10 2-14 0s-5-1-13 8a201 201 0 0038 304l5-3 9-4c4 0 6 0 15 5l21 8 13 6c3 2 6 8 6 13s0 5 24 7c5 1 40 0 42-1z" fill="#aad6e0"/><path d="M810 951c-15-2-32-12-47-25-9-9-18-20-40-47a3775 3775 0 00-95-118l-33-42-14 5a288 288 0 01-381-314 287 287 0 01292-249 289 289 0 01235 452 6419 6419 0 01130 164c32 40 40 52 46 73 3 11 3 29 0 40-4 14-11 26-23 40-4 4-6 6-16 11a93 93 0 01-54 10zm26-41l10-4c5-3 11-10 16-19 3-7 3-8 3-17 0-10 0-11-4-19-5-11-12-21-34-48a3620 3620 0 01-64-78c-2 0-68 50-69 52a3865 3865 0 0167 85c31 40 43 50 61 50l14-2zM520 697a260 260 0 0078-23c6-1 12 2 17 7 3 3 5 4 6 3l26-19c1-2 1-3-1-6-3-10 0-18 10-27a246 246 0 0073-238 250 250 0 00-457-73 254 254 0 00-34 163 249 249 0 00282 213zm3-38c-6-4-8-11-5-18 2-6 5-8 16-11a187 187 0 00104-290c-6-9-8-13-8-18 1-5 5-10 8-12s11-1 14 1c4 2 14 16 22 29a222 222 0 0127 143 217 217 0 01-168 178c-5 0-7 0-10-2zm-109-6c-17-6-29-12-32-16-3-3-5-9-3-13 2-7 10-12 16-11l13 6 20 8 13 6c6 5 6 15 1 20-7 7-11 7-29 0zm-61-347c-7-3-10-12-6-19 3-7 31-25 52-35 37-17 80-22 120-16 13 2 19 5 20 14 0 4 0 5-3 9l-7 6h-16c-22-3-47-2-67 2-24 6-50 18-69 32-12 9-16 10-24 7zm242-10l-27-16c-5-5-6-14-2-20 3-4 9-6 14-6 5 1 31 17 34 21 2 3 3 10 1 14-1 4-7 8-12 8-2 1-5 0-8-1z" fill="#8ba2a5"/><path d="M811 950c-7-1-18-5-25-9-17-9-29-22-59-59a2566 2566 0 00-100-123l-32-39-16 4a282 282 0 01-117 15 295 295 0 01-227-144c-7-12-17-34-17-36l-13-39a300 300 0 01-4-120 289 289 0 11532 200c-3 2-9 13-8 14l21 27a2369 2369 0 01110 137c30 37 40 52 46 71 3 12 3 29 0 40-3 10-8 22-16 32s-12 14-23 19c-19 9-35 12-52 10zm22-37c14-4 22-10 29-22 6-11 7-21 5-31-4-13-12-25-40-59a3701 3701 0 01-64-78 1048 1048 0 01-61-75l-2-2-11 11c-10 9-13 11-17 12-6 2-11 2-16-1-8-3-12-18-7-26l8-9a254 254 0 0078-216c-8-57-32-105-73-145a248 248 0 00-321-26 251 251 0 00244 435c15-7 21-7 31 3a2485 2485 0 01100 124l36 46c26 32 34 42 43 49 12 10 25 13 38 10zM526 659c-5-2-8-6-8-13s4-11 11-13a188 188 0 00106-299c-4-7-5-11-2-17 2-3 3-5 6-6 8-3 13 0 22 13a212 212 0 0134 180 214 214 0 01-165 156l-4-1zm-109-6l-22-10c-12-5-15-9-15-16 0-4 1-5 4-8 4-4 6-5 11-4l13 5 20 8c12 4 13 5 16 10v9c-1 4-6 9-9 9l-3 1-15-4zm-61-347l-6-4c-2-2-4-8-3-11 2-6 3-7 13-15a213 213 0 01171-35c6 3 8 12 4 18s-8 6-21 4a188 188 0 00-137 34c-13 10-15 11-21 9zm226-19c-15-9-17-11-17-18 0-8 5-13 13-13 4 0 5 1 21 10 9 5 12 8 14 10 2 4 2 11 0 14s-7 6-12 6c-4 0-6-1-19-9z" fill="#8f8b7c"/><path d="M814 950c-17-2-35-11-50-25a3504 3504 0 00-125-153 44536 44536 0 01-44-55l-14 4a289 289 0 01-328-103 284 284 0 01-44-243c16-61 54-117 104-154 17-13 15-12 36-24l20-9a288 288 0 01366 405l-11 21 31 40a38530 38530 0 01108 133c32 39 41 57 41 83 0 18-6 34-19 52-9 11-11 13-23 18-17 8-33 11-48 10zm19-37c14-4 22-10 29-22 6-11 7-21 5-31-4-13-12-25-40-59a3701 3701 0 01-64-78 1048 1048 0 01-61-75l-2-2-11 11c-10 9-13 11-17 12-6 2-11 2-16-1-8-3-12-18-7-26l8-9c26-21 55-66 66-100s13-50 13-81a242 242 0 00-74-180 248 248 0 00-321-26 251 251 0 00244 435c15-7 21-7 31 3a2485 2485 0 01100 124l36 46c26 32 34 42 43 49 12 10 25 13 38 10zM526 659c-5-2-8-6-8-13s4-11 11-13a188 188 0 00106-299c-4-7-5-11-2-17 2-3 3-5 6-6 8-3 13 0 22 13a212 212 0 0134 180 214 214 0 01-165 156l-4-1zm-109-6l-22-10c-12-5-15-9-15-16 0-4 1-5 4-8 4-4 6-5 11-4l13 5 20 8c12 4 13 5 16 10v9c-1 4-6 9-9 9l-3 1-15-4zm-61-347l-6-4c-2-2-4-8-3-11 2-6 3-7 13-15a213 213 0 01171-35c6 3 8 12 4 18s-8 6-21 4a188 188 0 00-137 34c-13 10-15 11-21 9zm226-19c-15-9-17-11-17-18 0-8 5-13 13-13 4 0 5 1 21 10 9 5 12 8 14 10 2 4 2 11 0 14s-7 6-12 6c-4 0-6-1-19-9z" fill="#7d8688"/><path d="M811 949c-11-2-25-8-37-17-10-7-24-22-43-47a4740 4740 0 00-136-168l-14 4a289 289 0 01-375-204 288 288 0 01106-296c18-13 16-12 37-24l20-9a288 288 0 01385 365c-5 14-16 36-22 45-7 11-9 15-8 17l10 12a5619 5619 0 01119 149c32 39 42 54 48 72 2 8 2 11 2 22 0 18-4 31-16 48-8 11-13 15-23 20a89 89 0 01-53 11zm30-38c11-4 17-10 23-22 4-7 4-10 5-16 1-17-7-31-37-68a3852 3852 0 01-85-105c-40-49-45-56-47-56l-12 11c-13 12-17 15-25 14-6-1-10-4-13-9-2-4-3-11-1-15 0-2 7-9 15-17a252 252 0 10-77 53c10-4 15-5 21-2 5 2 10 8 31 35a12507 12507 0 00117 147c36 46 47 54 68 54 7-1 10-1 17-4zM524 656c-4-2-5-4-5-10 0-7 3-11 12-12 13-3 40-14 55-23a188 188 0 0051-277c-5-6-6-11-4-15 2-5 6-8 11-7 6 0 9 2 17 13a214 214 0 01-101 326c-20 7-31 9-36 5zm-99-2c-23-8-37-14-41-18-3-4-4-10-2-14 4-8 11-8 25-1a227 227 0 0032 13c6 4 6 16-1 20h-13zm-72-351c-5-3-7-10-4-16a212 212 0 01144-51c35 2 44 5 43 17-1 5-4 8-8 10a237 237 0 00-64-1c-34 4-61 16-94 40-4 2-6 3-10 3l-7-2zm240-10l-23-15c-4-3-4-4-4-9s2-8 6-11c5-2 10-1 23 7 16 9 18 11 18 18 0 5 0 6-3 9-3 2-5 3-8 3l-9-2z" fill="#797979"/></svg>